<?xml version="1.0" encoding="iso-8859-1"?>
<!-- Generator: Adobe Illustrator 19.0.0, SVG Export Plug-In . SVG Version: 6.00 Build 0)  -->
<svg version="1.1" id="Capa_1" xmlns="http://www.w3.org/2000/svg" xmlns:xlink="http://www.w3.org/1999/xlink" x="0px" y="0px"
	 viewBox="0 0 512 512" style="enable-background:new 0 0 512 512;" xml:space="preserve">
<g>
	<g>
		<path d="M105.054,321.244c-35.365,0-64.138,28.768-64.138,64.138s28.774,64.138,64.138,64.138
			c35.364,0,64.138-28.774,64.138-64.138C169.192,350.018,140.418,321.244,105.054,321.244z M105.054,416.351
			c-17.074,0-30.963-13.889-30.963-30.963c0-17.074,13.889-30.969,30.963-30.969s30.963,13.895,30.963,30.969
			C136.017,402.462,122.128,416.351,105.054,416.351z"/>
	</g>
</g>
<g>
	<g>
		<path d="M391.464,321.244c-35.37,0-64.138,28.768-64.138,64.138s28.774,64.138,64.138,64.138
			c35.365,0,64.138-28.774,64.138-64.138C455.603,350.018,426.834,321.244,391.464,321.244z M391.464,416.351
			c-17.074,0-30.963-13.889-30.963-30.963c0-17.074,13.889-30.969,30.963-30.969c17.074,0,30.969,13.895,30.969,30.969
			C422.433,402.462,408.538,416.351,391.464,416.351z"/>
	</g>
</g>
<g>
	<g>
		<path d="M63.032,144.864c-6.209,0-11.899,3.467-14.746,8.99L1.841,243.98C0.63,246.329,0,248.934,0,251.577v133.806
			c0,9.162,7.426,16.587,16.587,16.587H56.95v-33.175H33.175V255.602l39.97-77.563h126.457v-33.175H63.032z"/>
	</g>
</g>
<g>
	<g>
		<rect x="154.263" y="368.795" width="189.097" height="33.175"/>
	</g>
</g>
<g>
	<g>
		<path d="M495.413,62.479h-295.81c-9.162,0-16.587,7.426-16.587,16.587v306.315h33.175V95.654h262.635v273.14h-39.81v33.175h56.397
			c9.162,0,16.587-7.426,16.587-16.587V79.067C512,69.905,504.574,62.479,495.413,62.479z"/>
	</g>
</g>
<g>
	<g>
		<rect x="16.587" y="235.542" width="183.015" height="33.175"/>
	</g>
</g>
<g>
	<g>
		<path d="M428.742,163.702c-6.088-6.856-16.576-7.47-23.416-1.382l-82.23,73.04l-32.622-33.042
			c-6.436-6.519-16.941-6.585-23.455-0.149c-6.519,6.436-6.585,16.941-0.149,23.46l43.675,44.233
			c3.235,3.279,7.52,4.938,11.81,4.938c3.926,0,7.857-1.388,11.003-4.186l93.996-83.496
			C434.205,181.036,434.824,170.552,428.742,163.702z"/>
	</g>
</g>
<g>
</g>
<g>
</g>
<g>
</g>
<g>
</g>
<g>
</g>
<g>
</g>
<g>
</g>
<g>
</g>
<g>
</g>
<g>
</g>
<g>
</g>
<g>
</g>
<g>
</g>
<g>
</g>
<g>
</g>
</svg>
