<?xml version="1.0"?>
<svg xmlns="http://www.w3.org/2000/svg" xmlns:xlink="http://www.w3.org/1999/xlink" xmlns:svgjs="http://svgjs.com/svgjs" version="1.1" width="512" height="512" x="0" y="0" viewBox="0 0 58 58" style="enable-background:new 0 0 512 512" xml:space="preserve" class=""><g><g xmlns="http://www.w3.org/2000/svg" id="Page-1" fill="none" fill-rule="evenodd"><g id="001---Vet" fill-rule="nonzero"><path id="Shape" d="m39 43.4v6.6c0 4.418278-3.581722 8-8 8h-4c-4.418278 0-8-3.581722-8-8v-10c0-.5522847-.4477153-1-1-1h-10c-4.418278 0-8-3.581722-8-8v-4c0-4.418278 3.581722-8 8-8h10c.5522847 0 1-.4477153 1-1v-10c0-4.418278 3.581722-8 8-8h4c4.418278 0 8 3.581722 8 8z" fill="#e64c3c" data-original="#e64c3c" style="" class=""/><g fill="#9fc9d3"><path id="Shape" d="m41 43c3.026 0 3.026 2 6.091 2 4.568 0 5-6 1.978-9s-3.026-7-8.069-7-5.043 4-8.069 7-2.59 9 1.978 9c3.065 0 3.065-2 6.091-2z" fill="#3fbbc0" data-original="#9fc9d3" style="" class=""/><ellipse id="Oval" cx="34.963" cy="20.514" rx="4.001" ry="5.501" transform="matrix(.99 -.142 .142 .99 -2.558 5.172)" fill="#3fbbc0" data-original="#9fc9d3" style="" class=""/><ellipse id="Oval" cx="27.215" cy="29.169" rx="3" ry="4" transform="matrix(.9 -.436 .436 .9 -9.999 14.795)" fill="#3fbbc0" data-original="#9fc9d3" style="" class=""/><ellipse id="Oval" cx="47.037" cy="20.5" rx="5.5" ry="4" transform="matrix(.142 -.99 .99 .142 20.053 64.142)" fill="#3fbbc0" data-original="#9fc9d3" style="" class=""/><ellipse id="Oval" cx="54.785" cy="29.168" rx="4" ry="3" transform="matrix(.436 -.9 .9 .436 4.638 65.739)" fill="#3fbbc0" data-original="#9fc9d3" style="" class=""/></g><path id="Shape" d="m4 28c-.55228475 0-1-.4477153-1-1 .00330612-2.7600532 2.23994685-4.9966939 5-5 .55228475 0 1 .4477153 1 1s-.44771525 1-1 1c-1.65685425 0-3 1.3431458-3 3 0 .2652165-.10535684.5195704-.29289322.7071068s-.44189029.2928932-.70710678.2928932z" fill="#fb7b76" data-original="#fb7b76" style=""/><path id="Shape" d="m13 24h-1c-.5522847 0-1-.4477153-1-1s.4477153-1 1-1h1c.5522847 0 1 .4477153 1 1s-.4477153 1-1 1z" fill="#fb7b76" data-original="#fb7b76" style=""/></g></g></g></svg>
