<svg id="Capa_1" enable-background="new 0 0 511.945 511.945" height="512" viewBox="0 0 511.945 511.945" width="512" xmlns="http://www.w3.org/2000/svg"><g><g><path d="m277.368 363.742-82.828-13.817-69.462-25.371c-15.39-5.621-32.102 4.118-34.798 20.279-2.075 12.44 5.016 24.592 16.869 28.904l79.342 28.867 82.11 13.697z" fill="#a34f41"/><g><path d="m396.456 226.02c40.453-40.453 40.453-106.041 0-146.494-40.453-40.453-106.04-40.453-146.494 0l-32.842 32.842-32.842-32.842c-40.453-40.453-106.04-40.453-146.494 0-40.453 40.453-40.453 106.04 0 146.494l164.621 164.621c8.127 8.126 21.302 8.126 29.429 0z" fill="#fb6a3b"/><path d="m396.462 226.012-164.622 164.623c-8.136 8.136-21.309 8.136-29.424 0l-19.852-19.852 159.982-160.003c40.453-40.453 40.453-106.044 0-146.476v-.021c-5.889-5.889-12.319-10.925-19.145-15.087 26.449.042 52.876 10.155 73.061 30.34 40.454 40.453 40.454 106.023 0 146.476z" fill="#fb5532"/></g><g><path d="m236.835 372.237h-83.973l-72.69-13.596c-16.105-3.012-30.987 9.344-30.987 25.728 0 12.612 8.994 23.431 21.395 25.734l83.01 15.418h83.245z" fill="#ba5d4f"/><path d="m504.44 359.73h-23.467c-9.892 0-19.446 3.601-26.878 10.13l-90.386 79.413c-9.893 8.692-22.612 13.486-35.782 13.486h-156.541l-83.01-15.418c-12.4-2.303-21.395-13.122-21.395-25.734 0-16.384 14.882-28.741 30.987-25.728l72.69 13.596h103.795l103.481-103.481 28.447-76.185h98.059z" fill="#c86f5c"/><path d="m261.642 359.585-57.518-11.229c-16.574-3.236-32.4 8.304-34.388 25.073-1.667 14.066 7.061 27.281 20.652 31.269l74.325 21.813c9.966 3.121 20.812 1.506 29.436-4.383l126.346-86.278v-106.042h-26.128c-70.979 0-132.725 129.777-132.725 129.777z" fill="#c86f5c"/><path d="m261.647 359.584-57.518-11.228c-16.575-3.239-32.406 8.306-34.391 25.075-.134 1.157-.207 2.302-.207 3.434 0 11.034 6.296 21.093 16.088 25.964 4.713-13.213 18.523-21.531 32.906-18.718l46.157 9.01c6.634 1.295 13.332-1.888 16.508-7.854 16.224-30.488 68.725-119.7 127.572-119.7h95.685v-35.755h-110.081c-70.975.001-132.719 129.772-132.719 129.772z" fill="#ba5d4f"/></g></g><g><path d="m247.392 223.575c-1.805-6.09-5.695-11.629-11.521-15.453-11.498-7.546-27.101-5.461-36.221 4.834-4.912 5.546-7.208 12.399-7.071 19.154.158 7.793-2.62 15.254-7.745 21.127-5.549 6.359-8.209 15.178-6.287 24.266 2.84 13.421 15.308 22.908 29.001 22.082 4.302-.26 8.291-1.459 11.796-3.376 6.873-3.76 14.871-4.799 22.477-2.924 3.871.954 8.025 1.094 12.241.25 13.345-2.673 22.965-14.868 22.423-28.467-.411-10.305-6.197-18.883-14.376-23.438-7.062-3.935-12.419-10.304-14.717-18.055z" fill="#64b9fc"/><path d="m276.492 265.064c.534 13.6-9.077 25.795-22.424 28.465-4.214.851-8.369.711-12.251-.247-.104-.024-.22-.047-.325-.071 3.858-5.042 6.037-11.365 5.774-18.039-.407-10.3-6.189-18.879-14.373-23.438-7.069-3.935-12.424-10.3-14.72-18.059-1.8-6.083-5.7-11.629-11.518-15.449-2.605-1.704-5.425-2.926-8.319-3.659.408-.545.855-1.082 1.316-1.609 9.113-10.303 24.718-12.384 36.216-4.838 5.831 3.819 9.718 9.366 11.518 15.449 2.308 7.757 7.663 14.122 14.72 18.059 8.185 4.559 13.966 13.138 14.386 23.436z" fill="#31a7fb"/><g><circle cx="182.401" cy="166.139" fill="#64b9fc" r="19.986"/><g><path d="m202.22 163.558c1.424 10.945-6.295 20.973-17.24 22.397-2.846.37-5.633.121-8.216-.645 6.555-3.983 10.508-11.571 9.454-19.671s-6.817-14.423-14.173-16.596c2.301-1.401 4.931-2.355 7.777-2.726 10.946-1.423 20.974 6.296 22.398 17.241z" fill="#31a7fb"/></g><circle cx="244.25" cy="158.092" fill="#64b9fc" r="19.986"/><path d="m264.067 155.511c1.424 10.945-6.295 20.973-17.24 22.397-2.855.371-5.641.122-8.224-.644 6.565-3.976 10.517-11.572 9.463-19.672s-6.818-14.432-14.182-16.595c2.301-1.401 4.931-2.355 7.786-2.727 10.945-1.423 20.973 6.295 22.397 17.241z" fill="#31a7fb"/></g><g><circle cx="147.605" cy="219.165" fill="#64b9fc" r="19.986"/><g><path d="m167.421 216.588c1.424 10.945-6.295 20.973-17.24 22.398-2.855.371-5.641.122-8.224-.644 6.565-3.976 10.517-11.572 9.463-19.672s-6.818-14.432-14.182-16.595c2.301-1.401 4.931-2.355 7.786-2.727 10.945-1.425 20.973 6.294 22.397 17.24z" fill="#31a7fb"/></g><circle cx="291.457" cy="200.447" fill="#64b9fc" r="19.986"/><path d="m311.277 197.87c1.424 10.945-6.295 20.973-17.24 22.398-2.846.37-5.633.121-8.216-.645 6.555-3.983 10.508-11.571 9.454-19.671s-6.817-14.423-14.173-16.596c2.301-1.401 4.931-2.355 7.777-2.726 10.946-1.425 20.974 6.294 22.398 17.24z" fill="#31a7fb"/></g></g><g><path d="m47.447 243.18c1.919 0 3.839-.732 5.304-2.197 2.929-2.929 2.929-7.678 0-10.606l-9.659-9.659c-18.148-18.148-28.144-42.278-28.144-67.943 0-25.666 9.995-49.795 28.144-67.944s42.277-28.143 67.943-28.143 49.795 9.995 67.943 28.143l32.842 32.842c2.931 2.929 7.679 2.927 10.607 0l32.843-32.843c33.234-33.234 85.139-37.661 123.42-10.521 3.381 2.396 8.062 1.598 10.456-1.78 2.396-3.379 1.599-8.061-1.78-10.457-21.139-14.986-47.077-22.097-73.043-20.027-26.265 2.095-51.004 13.523-69.66 32.179l-27.538 27.539-27.539-27.539c-20.981-20.981-48.878-32.537-78.55-32.537-29.673 0-57.569 11.555-78.551 32.537-43.313 43.313-43.313 113.788 0 157.1l9.659 9.659c1.464 1.464 3.384 2.197 5.303 2.197z"/><path d="m504.439 352.229h-23.467c-11.72 0-23.023 4.26-31.828 11.996l-90.386 79.413c-8.528 7.494-19.478 11.62-30.831 11.62h-155.851l-82.33-15.292c-8.846-1.643-15.266-9.365-15.266-18.361 0-5.571 2.458-10.808 6.745-14.367 4.287-3.56 9.89-5.011 15.363-3.989l72.69 13.596c.455.085.916.128 1.379.128h34.924l56.958 16.716c4.092 1.274 8.278 1.902 12.435 1.902 8.248 0 16.376-2.472 23.402-7.27l89.846-61.353c3.421-2.336 4.3-7.002 1.964-10.423s-7.003-4.3-10.423-1.964l-89.846 61.353c-6.771 4.624-15.142 5.869-22.965 3.42-.043-.014-.086-.026-.129-.039l-74.323-21.813c-10.116-2.969-16.558-12.722-15.316-23.189.713-6.016 3.801-11.293 8.695-14.862 4.896-3.568 10.862-4.894 16.807-3.733l57.519 11.229c3.358.656 6.737-1.047 8.209-4.137.152-.319 15.495-32.32 39.115-63.801 21.119-28.147 53.328-61.7 86.837-61.7h110.08c4.143 0 7.5-3.358 7.5-7.5s-3.357-7.5-7.5-7.5h-94.623c30.603-38.026 33.048-92.089 4.659-132.891-2.364-3.399-7.04-4.238-10.439-1.873-3.4 2.366-4.239 7.04-1.873 10.44 26.561 38.174 21.929 89.791-11.014 122.733l-1.798 1.799c-65.033 4.934-119.438 104.15-131.893 128.612l-51.903-10.133c-9.943-1.942-20.335.368-28.519 6.334-1.411 1.029-2.732 2.16-3.969 3.368l-94.917-94.917c-2.93-2.929-7.678-2.929-10.607 0s-2.929 7.678 0 10.606l49.076 49.076c-6.062-.098-12.101 1.445-17.482 4.581-8.681 5.059-14.607 13.644-16.261 23.555-.436 2.614-.547 5.244-.369 7.849l-.962-.18c-9.877-1.849-19.974.775-27.703 7.192-7.729 6.418-12.163 15.861-12.163 25.908 0 12.877 7.303 24.434 18.565 30.079-.504 2.328-.769 4.724-.769 7.157 0 16.221 11.576 30.145 27.526 33.108l83.01 15.418c.451.084.91.126 1.369.126h156.542c15 0 29.465-5.452 40.731-15.352l90.386-79.413c6.066-5.33 13.854-8.265 21.928-8.265h23.467c4.143 0 7.5-3.358 7.5-7.5s-3.359-7.497-7.502-7.497zm-333.085 49.745-72.007-13.468c-9.878-1.848-19.974.775-27.703 7.192-1.876 1.558-3.554 3.298-5.026 5.178-6.042-3.191-9.933-9.5-9.933-16.506 0-5.572 2.458-10.809 6.745-14.368s9.887-5.012 15.363-3.989l24.41 4.566c4.066.765 7.99-1.921 8.751-5.993.762-4.071-1.922-7.989-5.993-8.751l-7.782-1.456c-.787-2.686-.967-5.517-.502-8.312.917-5.496 4.204-10.257 9.018-13.063 4.814-2.805 10.575-3.318 15.81-1.406l16.157 5.902 25.933 25.933c-.17.43-.324.867-.478 1.304h-10.559l-12.466-2.332c-4.064-.761-7.989 1.921-8.751 5.993s1.922 7.99 5.993 8.751l13.149 2.459c.455.085.916.128 1.379.128h9.285c.652 8.446 3.543 16.262 9.207 22.238z"/><path d="m178.854 138.883c-15.028 1.956-25.665 15.773-23.71 30.803 1.801 13.831 13.646 23.94 27.236 23.94 1.178 0 2.368-.076 3.566-.231 15.028-1.956 25.665-15.774 23.71-30.802 0 0 0 0 0-.001-1.955-15.028-15.764-25.663-30.802-23.709zm5.158 39.638c-6.832.895-13.104-3.943-13.992-10.77-.889-6.827 3.943-13.104 10.771-13.993.545-.071 1.085-.105 1.62-.105 6.172 0 11.554 4.593 12.372 10.875.888 6.827-3.944 13.104-10.771 13.993z"/><path d="m240.704 130.835c-15.028 1.956-25.665 15.773-23.71 30.802.947 7.281 4.673 13.756 10.491 18.235 4.855 3.737 10.682 5.709 16.709 5.709 1.194 0 2.398-.078 3.603-.234 15.028-1.956 25.665-15.774 23.71-30.802 0 0 0 0 0-.001-1.957-15.028-15.776-25.661-30.803-23.709zm5.157 39.638c-3.306.429-6.585-.453-9.227-2.487-2.644-2.034-4.336-4.976-4.766-8.283-.889-6.828 3.943-13.104 10.771-13.993.544-.071 1.084-.105 1.619-.105 6.174 0 11.556 4.593 12.373 10.876v-.001c.89 6.828-3.943 13.105-10.77 13.993z"/><path d="m144.059 191.909c-15.028 1.956-25.665 15.773-23.71 30.802.947 7.281 4.673 13.756 10.491 18.234 4.855 3.737 10.682 5.71 16.708 5.71 1.195 0 2.399-.078 3.604-.234 15.028-1.956 25.665-15.774 23.71-30.802 0 0 0 0 0-.001-1.957-15.029-15.778-25.662-30.803-23.709zm15.927 25.644c.889 6.827-3.943 13.104-10.771 13.993-3.311.431-6.584-.453-9.227-2.487-2.644-2.035-4.336-4.976-4.766-8.283-.889-6.828 3.943-13.104 10.771-13.993.545-.071 1.085-.105 1.62-.105 6.173 0 11.555 4.593 12.373 10.875z"/><path d="m295.004 227.704c7.28-.948 13.756-4.673 18.234-10.491s6.422-13.032 5.475-20.312-4.673-13.756-10.49-18.234c-5.818-4.478-13.031-6.422-20.313-5.475-7.28.947-13.756 4.673-18.234 10.491s-6.422 13.032-5.475 20.311c1.8 13.832 13.645 23.943 27.237 23.942 1.177-.001 2.369-.077 3.566-.232zm-15.928-25.646c-.431-3.307.452-6.583 2.486-9.226s4.976-4.335 8.283-4.765c.548-.071 1.094-.106 1.637-.106 2.738 0 5.385.896 7.591 2.593 2.643 2.034 4.335 4.976 4.765 8.283v.001c.431 3.307-.452 6.583-2.486 9.226s-4.977 4.335-8.283 4.766c-6.826.881-13.105-3.944-13.993-10.772z"/><path d="m205.896 307.133c.698 0 1.401-.021 2.105-.063 5.307-.32 10.334-1.761 14.942-4.283 5.229-2.86 11.295-3.648 17.084-2.222 5.091 1.255 10.308 1.363 15.509.322 16.901-3.385 29.13-18.913 28.444-36.12-.498-12.516-7.31-23.616-18.221-29.691-5.512-3.069-9.48-7.911-11.176-13.632h-.001c-2.375-8.017-7.56-14.975-14.597-19.592-14.608-9.589-34.362-6.952-45.95 6.131-5.956 6.724-9.137 15.346-8.955 24.278.118 5.853-1.977 11.551-5.898 16.044-7.405 8.487-10.312 19.695-7.973 30.75 3.457 16.33 18.155 28.079 34.687 28.078zm-15.412-48.966c6.38-7.311 9.787-16.619 9.593-26.21-.104-5.152 1.738-10.135 5.188-14.029 3.982-4.496 9.636-6.852 15.338-6.852 3.864 0 7.752 1.083 11.154 3.316 4.136 2.714 7.056 6.626 8.445 11.313h-.001c2.816 9.504 9.302 17.486 18.261 22.476 6.305 3.511 10.242 9.935 10.53 17.184.396 9.914-6.656 18.863-16.401 20.814-3.021.604-6.042.544-8.974-.178-9.44-2.326-19.339-1.041-27.872 3.626-2.655 1.453-5.565 2.284-8.648 2.47-10.028.597-19.136-6.338-21.211-16.148-1.355-6.399.322-12.881 4.598-17.782z"/></g></g></svg>